# xmcd
#
# Track frame offsets:
#	150
#	16927
#	26786
#	35555
#	60388
#	82457
#	95226
#	114177
#	142791
#	159589
#	172154
#	189038
#	207902
#	225627
#	239704
#	251948
#	265082
#	279568
#	291939
#	300384
#
# Disc length: 4167 seconds
#
# Revision: 1
# Processed by: cddbd v1.5.2PL0 Copyright (c) Steve Scherf et al.
# Submitted via: EZCDAudioConverter 5.1.1.1
#
DISCID=1f104514
DTITLE=Compilation - The Ultimate Collection Country [Disc 4]
DYEAR=2014
DGENRE=Country
TTITLE0=Nick Drake - Northern Sky
TTITLE1=J.J. Cale - Cajun Moon
TTITLE2=Emmylou Harris - Didn't Leave Nobody But The Baby
TTITLE3=Rod Stewart - Mandolin Wind
TTITLE4=Gene Clark - Silver Raven
TTITLE5=Dan Fogelberg - Morning Sky
TTITLE6=Martina McBride - Concrete Angel
TTITLE7=The Flying Burrito Brothers - Wild Horses
TTITLE8=Joe Walsh - Birdcall Morning
TTITLE9=The Flatlanders - Dallas
TTITLE10=Kathy Mattea - Where've You Been
TTITLE11=Nanci Griffith - From A Distance
TTITLE12=Lee Greenwood - The Wind Beneath My Wings
TTITLE13=Rita Remington - Angel Of The Morning
TTITLE14=Patsy Cline - Crazy
TTITLE15=Ray Stevens - Misty
TTITLE16=Jennie C. Riley - Harper Valley P.T.A
TTITLE17=Randy Travis - Dreamin'
TTITLE18=Wayne Hancock - Driving My Young Life Away
TTITLE19=Johnny Cash - I Walk The Line
EXTD=
EXTT0=
EXTT1=
EXTT2=
EXTT3=
EXTT4=
EXTT5=
EXTT6=
EXTT7=
EXTT8=
EXTT9=
EXTT10=
EXTT11=
EXTT12=
EXTT13=
EXTT14=
EXTT15=
EXTT16=
EXTT17=
EXTT18=
EXTT19=
PLAYORDER=
